<svg xmlns="http://www.w3.org/2000/svg" viewBox="0 0 800 600" fill="none">
  <defs>
    <linearGradient id="grad1" x1="0%" y1="0%" x2="100%" y2="100%">
      <stop offset="0%" style="stop-color:#cc3333;stop-opacity:1" />
      <stop offset="100%" style="stop-color:#a32929;stop-opacity:1" />
    </linearGradient>
    <linearGradient id="grad2" x1="0%" y1="0%" x2="0%" y2="100%">
      <stop offset="0%" style="stop-color:#f8fafc;stop-opacity:1" />
      <stop offset="100%" style="stop-color:#e2e8f0;stop-opacity:1" />
    </linearGradient>
    <filter id="shadow" x="-20%" y="-20%" width="140%" height="140%">
      <feGaussianBlur in="SourceAlpha" stdDeviation="10" />
      <feOffset dx="5" dy="10" result="offsetblur" />
      <feComponentTransfer>
        <feFuncA type="linear" slope="0.2" />
      </feComponentTransfer>
      <feMerge>
        <feMergeNode />
        <feMergeNode in="SourceGraphic" />
      </feMerge>
    </filter>
  </defs>

  <!-- Background Circle -->
  <circle cx="400" cy="300" r="250" fill="#f1f5f9" opacity="0.5" />
  <circle cx="400" cy="300" r="200" fill="#e2e8f0" opacity="0.5" />

  <!-- Tablet/Document Base -->
  <rect x="200" y="150" width="400" height="300" rx="20" fill="url(#grad2)" filter="url(#shadow)" />
  <rect x="220" y="170" width="360" height="260" rx="10" fill="white" />

  <!-- UI Elements on Tablet -->
  <rect x="250" y="200" width="100" height="10" rx="5" fill="#cbd5e1" />
  <rect x="250" y="230" width="200" height="8" rx="4" fill="#e2e8f0" />
  <rect x="250" y="250" width="180" height="8" rx="4" fill="#e2e8f0" />
  <rect x="250" y="270" width="160" height="8" rx="4" fill="#e2e8f0" />

  <!-- Checkmarks -->
  <circle cx="540" cy="234" r="12" fill="#dcfce7" />
  <path d="M534 234 L538 238 L546 230" stroke="#16a34a" stroke-width="3" stroke-linecap="round" stroke-linejoin="round" />
  
  <circle cx="540" cy="254" r="12" fill="#dcfce7" />
  <path d="M534 254 L538 258 L546 250" stroke="#16a34a" stroke-width="3" stroke-linecap="round" stroke-linejoin="round" />

  <circle cx="540" cy="274" r="12" fill="#dcfce7" />
  <path d="M534 274 L538 278 L546 270" stroke="#16a34a" stroke-width="3" stroke-linecap="round" stroke-linejoin="round" />

  <!-- Rocket Launching -->
  <g transform="translate(400, 250)">
    <!-- Flames -->
    <path d="M-15 80 Q0 120 15 80 Q0 100 -15 80" fill="#f59e0b" opacity="0.8">
      <animate attributeName="d" values="M-15 80 Q0 120 15 80 Q0 100 -15 80; M-12 85 Q0 110 12 85 Q0 95 -12 85; M-15 80 Q0 120 15 80 Q0 100 -15 80" dur="0.5s" repeatCount="indefinite" />
    </path>
    
    <!-- Rocket Body -->
    <path d="M0 -60 C-30 -30 -30 30 -30 60 L30 60 C30 30 30 -30 0 -60 Z" fill="url(#grad1)" />
    <path d="M0 -60 C-30 -30 -30 30 -30 60 L0 60 Z" fill="#cc3333" /> <!-- Shading -->
    
    <!-- Window -->
    <circle cx="0" cy="0" r="12" fill="#e2e8f0" stroke="#991b1b" stroke-width="3" />
    
    <!-- Fins -->
    <path d="M-30 40 L-50 70 L-30 70 Z" fill="#991b1b" />
    <path d="M30 40 L50 70 L30 70 Z" fill="#991b1b" />
    <path d="M0 40 L0 70" stroke="#991b1b" stroke-width="2" />
  </g>

  <!-- Floating Elements -->
  <circle cx="650" cy="150" r="30" fill="#cc3333" opacity="0.1" />
  <circle cx="150" cy="450" r="20" fill="#3b82f6" opacity="0.1" />
  
  <!-- Speed Lines -->
  <path d="M350 100 L350 130" stroke="#cbd5e1" stroke-width="2" stroke-linecap="round" />
  <path d="M450 80 L450 120" stroke="#cbd5e1" stroke-width="2" stroke-linecap="round" />
  <path d="M400 60 L400 90" stroke="#cbd5e1" stroke-width="2" stroke-linecap="round" />

</svg>